<svg xmlns="http://www.w3.org/2000/svg" viewBox="0 0 1200 420"><rect width="1200" height="420" rx="28" fill="#0b1220"/><g stroke="#263244" stroke-width="1"><path d="M70 100h1060M70 210h1060M70 320h1060"/><path d="M180 65v290M400 65v290M620 65v290M840 65v290M1060 65v290"/></g><g fill="#111827" stroke="#a3e635" stroke-width="3"><rect x="110" y="135" width="210" height="95" rx="16"/><rect x="495" y="105" width="210" height="95" rx="16"/><rect x="880" y="135" width="210" height="95" rx="16"/></g><g fill="none" stroke="#bef264" stroke-width="3"><path d="M320 182h175M705 152l175 30"/></g><g fill="#f8fafc" font-family="ui-monospace,SFMono-Regular,Menlo,monospace"><text x="110" y="167" font-size="15" fill="#94a3b8">DIRECTORY</text><text x="150" y="207" font-size="23" font-weight="700">LDAP / LDIF</text><text x="495" y="137" font-size="15" fill="#94a3b8">SERVICE</text><text x="555" y="177" font-size="23" font-weight="700">LDAPium</text><text x="880" y="167" font-size="15" fill="#94a3b8">ACCESS</text><text x="927" y="207" font-size="23" font-weight="700">SSO / Apps</text><text x="110" y="370" font-size="30" font-weight="700">Ldapium</text></g></svg>