<svg xmlns="http://www.w3.org/2000/svg" viewBox="0 0 1200 420" role="img" aria-labelledby="t d">
  <title id="t">Ldapium</title>
  <desc id="d">OpenLDAP 2.6 container architecture.</desc>
  <style>
    .svg-bg { fill: var(--surface, #ffffff); }
    .svg-grid { stroke: var(--border-soft, #e2e8f0); }
    .svg-card { fill: var(--surface-hi, #f8fafc); stroke: var(--accent, #0d9488); }
    .svg-link { stroke: var(--accent, #14b8a6); }
    .svg-text-title { fill: var(--text, #1e293b); }
    .svg-text-sub { fill: var(--text-faint, #64748b); }
    .svg-brand { fill: var(--text, #0f172a); }
    @media (prefers-color-scheme: dark) {
      .svg-bg { fill: var(--surface, #212a36); }
      .svg-grid { stroke: var(--border-soft, #253242); }
      .svg-card { fill: var(--surface-hi, #1a222c); stroke: var(--accent, #2dd4bf); }
      .svg-link { stroke: var(--accent, #5eead4); }
      .svg-text-title { fill: var(--text, #f0f6fc); }
      .svg-text-sub { fill: var(--text-faint, #94a3b8); }
      .svg-brand { fill: var(--text, #f0f6fc); }
    }
  </style>
  <rect width="1200" height="420" rx="24" class="svg-bg"/>
  <g class="svg-grid" stroke-width="1"><path d="M70 100h1060M70 210h1060M70 320h1060"/><path d="M180 65v290M400 65v290M620 65v290M840 65v290M1060 65v290"/></g>
  <g class="svg-card" stroke-width="2.5"><rect x="110" y="135" width="210" height="95" rx="16"/><rect x="495" y="105" width="210" height="95" rx="16"/><rect x="880" y="135" width="210" height="95" rx="16"/></g>
  <g class="svg-link" fill="none" stroke-width="2.5"><path d="M320 182h175M705 152l175 30"/></g>
  <g font-family="ui-monospace,SFMono-Regular,Menlo,monospace">
    <text x="110" y="167" font-size="14" font-weight="600" class="svg-text-sub">DIRECTORY</text>
    <text x="150" y="207" font-size="22" font-weight="700" class="svg-text-title">LDAP / LDIF</text>
    <text x="495" y="137" font-size="14" font-weight="600" class="svg-text-sub">SERVICE</text>
    <text x="555" y="177" font-size="22" font-weight="700" class="svg-text-title">LDAPium</text>
    <text x="880" y="167" font-size="14" font-weight="600" class="svg-text-sub">ACCESS</text>
    <text x="927" y="207" font-size="22" font-weight="700" class="svg-text-title">SSO / Apps</text>
    <text x="110" y="370" font-size="28" font-weight="700" class="svg-brand">Ldapium</text>
  </g>
</svg>
