<svg xmlns="http://www.w3.org/2000/svg" viewBox="0 0 1200 420"><rect width="1200" height="420" rx="28" fill="#0b1220"/><g stroke="#263244" stroke-width="1"><path d="M70 100h1060M70 210h1060M70 320h1060"/><path d="M180 65v290M400 65v290M620 65v290M840 65v290M1060 65v290"/></g><g fill="#111827" stroke="#f472b6" stroke-width="3"><rect x="120" y="135" width="220" height="95" rx="16"/><rect x="490" y="105" width="220" height="95" rx="16"/><rect x="860" y="135" width="220" height="95" rx="16"/></g><g fill="none" stroke="#f9a8d4" stroke-width="3"><path d="M340 182h150M710 152l150 30"/></g><g fill="#f8fafc" font-family="ui-monospace,SFMono-Regular,Menlo,monospace"><text x="120" y="167" font-size="15" fill="#94a3b8">EDITOR</text><text x="160" y="207" font-size="23" font-weight="700">Cursor</text><text x="490" y="137" font-size="15" fill="#94a3b8">WORKFLOW</text><text x="545" y="177" font-size="23" font-weight="700">Agent</text><text x="860" y="167" font-size="15" fill="#94a3b8">AUTOMATE</text><text x="905" y="207" font-size="23" font-weight="700">Tools</text><text x="120" y="370" font-size="30" font-weight="700">oh-my-cursor</text></g></svg>